<?xml version="1.0" encoding="utf-8"?>
<!-- Generator: Adobe Illustrator 25.3.1, SVG Export Plug-In . SVG Version: 6.00 Build 0)  -->
<svg version="1.1" xmlns="http://www.w3.org/2000/svg" xmlns:xlink="http://www.w3.org/1999/xlink" x="0px" y="0px"
	 viewBox="0 0 187 187" style="enable-background:new 0 0 187 187;" xml:space="preserve">
<style type="text/css">
	.st0{fill:none;stroke:#000000;stroke-width:6;stroke-miterlimit:10;}
	.st1{display:none;}
	.st2{display:inline;fill:#00D8EB;}
	.st3{display:inline;}
	.st4{fill:#F7274C;}
	.st5{fill:#00D8EB;}
	.st6{fill:#3E003A;}
	.st7{display:inline;fill:#FFFFFF;}
	.st8{display:inline;fill:#F7274C;}
	.st9{display:inline;fill:#3E003A;}
</style>
<g id="图层_1">
	<circle class="st0" cx="90.04" cy="94.64" r="66.64"/>
	<circle class="st0" cx="90.17" cy="94.64" r="35.61"/>
	<path class="st0" d="M90.04,44.24c-27.84,0-50.4,22.57-50.4,50.4v48.5"/>
	<path class="st0" d="M141.3,94.69c0,28-22.7,50.7-50.7,50.7s-50.7-22.7-50.7-50.7"/>
	<path class="st0" d="M110.04,47.62c0.5,0.2,1,0.41,1.49,0.63c1.3,0.57,2.56,1.2,3.8,1.88c7.14,3.92,13.22,9.53,17.7,16.29"/>
	<path class="st0" d="M99.29,44.62c1.89,0.3,3.75,0.71,5.56,1.22"/>
	<line class="st0" x1="38.13" y1="97.2" x2="85.03" y2="92.13"/>
	<circle class="st0" cx="90.17" cy="92.89" r="6.77"/>
</g>
<g id="图层_2" class="st1">
	<rect x="44.81" y="89.47" class="st2" width="6.13" height="41.65"/>
	<rect x="49.71" y="44.15" class="st2" width="3.68" height="34.3"/>
	<g class="st3">
		<path class="st4" d="M57.06,44.15h25.73l1.1,34.11l28.3-34.11h34.3l-30.63,34.01l30.63,55.42l-30.55,0.03L97.7,97.02l-13.82,14.88
			v21.71H57.15L57.06,44.15z"/>
	</g>
	<g class="st3">
		<path class="st5" d="M50.94,44.34h24.53v32.7l26.98-32.7h34.26L106.29,77l31.78,53.87h-30.5L90,95.29l-14.53,14.47v21.12H50.94
			V44.34z"/>
	</g>
	<g class="st3">
		<path class="st6" d="M55.84,44.15h22.15v35.09l28.01-35.09h35.56l-31.58,35.05L142.97,137h-32.93L91.37,99.28l-13.38,15.06V137
			H51.25V84.19l4.59-1.07V44.15z"/>
	</g>
	<rect x="44.81" y="78.45" class="st7" width="15.93" height="6.13"/>
	<rect x="92.59" y="113.98" class="st7" width="22.05" height="4.9"/>
	<rect x="99.94" y="93.15" class="st7" width="4.9" height="4.9"/>
	<rect x="59.51" y="74.77" class="st7" width="4.9" height="4.9"/>
	<rect x="135.47" y="82.12" class="st8" width="6.13" height="6.13"/>
	<rect x="121.38" y="91.92" class="st8" width="18.99" height="6.13"/>
	<rect x="41.14" y="84.57" class="st2" width="9.8" height="6.13"/>
	<polygon class="st9" points="127.38,103.56 111.75,77.22 108.52,78.45 122.88,104.95 	"/>
	<polygon class="st7" points="102.39,113.98 93.82,96.83 91.37,99.28 97.49,113.98 	"/>
	<rect x="110.97" y="102.95" class="st7" width="29.4" height="6.13"/>
	<polygon class="st8" points="92.68,102.43 95.24,99.67 93.82,96.83 91.37,99.28 	"/>
</g>
</svg>
